# xmcd
#
# Track frame offsets:
#	150
#	7276
#	21386
#	50361
#	70396
#	76096
#	101671
#	121832
#	127872
#	156356
#	167437
#	197805
#	221963
#	237718
#
# Disc length: 3304 seconds
#
# Revision: 0
# Processed by: cddbd v1.5.2PL0 Copyright (c) Steve Scherf et al.
# Submitted via: EasyCDDAExtractor 16.0.6.1
#
DISCID=c50ce60e
DTITLE=Σκουλάς Βασίλης-Ανδρουλάκης Νίκος - Κρητών έπος-Χ. Χάλαρης
DYEAR=1996
DGENRE=Κρητική
TTITLE0=Τσάγγας Χρήστος - Άστρο κι αστέρι της αυγής [στ. Α. Σανουδάκης]
TTITLE1=Σκουλάς Βασίλης - Όρκο βαρύ θα δώσω [μαρτ. καπετάν Σήφης Νάνης]
TTITLE2=Σκουλάς Βασίλης - Χριστέ να σπούσαν οι φυλακές [μαρτ. Γιώργης Φαραγκου
TTITLE2=λιτάκης]
TTITLE3=Σκουλάς Βασίλης-χορωδία - Χίτλερ να μην το καυχηθείς [μαρτ. Χαρίκλεια 
TTITLE3=Δραμουντάκη]
TTITLE4=Κεφαλογιάννης Κώστας ή Κουντοκώστας - Η μαρτυρία του Κώστα Κεφαλογιάνν
TTITLE4=η (Κουντοκώστα)
TTITLE5=Σκουλάς Βασίλης-χορωδία - Πότε θα κάνει ξαστεριά [μαρτ. καπετάν Βασίλη
TTITLE5=ς Πατεράκης]
TTITLE6=Σκουλάς Βασίλης - Η λευτεριά 'ναι μιά φορά
TTITLE7=Κρασανάκης Αδάμης - Η μαρτυρία του Αδάμη Κρασανάκη
TTITLE8=Ανδρουλάκης Νίκος - Αετόπουλα απ' τον Ομαλό [μαρτ. καπετάν Μιχάλης Σαμ
TTITLE8=αρίτης]
TTITLE9=Σκουλάς Βασίλης - Πότε στην Κρήτη η λεβεδιά [μαρτ. Κωστής Πετράκης]
TTITLE10=Σκουλάς Βασίλης - Βιγλάτορες τση λευτεριάς [μαρτ. Γιώργης Τυράκης]
TTITLE11=Σκουλάς Βασίλης - Ο έρωντας κι η λευτεριά [μαρτ. Γιάννης Χρονάκης]
TTITLE12=Ανδρουλάκης Νίκος - Ονείρου πύργος [στ. Α. Σανουδάκης, μαρτ. Χαραλάμπ
TTITLE12=ης Γιανναδάκης]
TTITLE13=Σουλτάτου Μαρία - Αυγή τσ' αυγής θα σηκωθώ [στ. Α. Σανουδάκης, καπετά
TTITLE13=ν Βασ. Πατεράκης]
EXTD=
EXTT0=
EXTT1=
EXTT2=
EXTT3=
EXTT4=
EXTT5=
EXTT6=
EXTT7=
EXTT8=
EXTT9=
EXTT10=
EXTT11=
EXTT12=
EXTT13=
PLAYORDER=
